<?xml version="1.0" standalone="no"?><!DOCTYPE svg PUBLIC "-//W3C//DTD SVG 1.1//EN" "http://www.w3.org/Graphics/SVG/1.1/DTD/svg11.dtd"><svg xmlns:xlink="http://www.w3.org/1999/xlink" version="1.1" class="highcharts-root" style="font-family:&quot;Lucida Grande&quot;, &quot;Lucida Sans Unicode&quot;, Arial, Helvetica, sans-serif;font-size:12px;" xmlns="http://www.w3.org/2000/svg" width="600" height="400" viewBox="0 0 600 400"><desc>Created with Highcharts 6.1.0</desc><defs><clipPath id="highcharts-brxhraq-9"><rect x="0" y="0" width="580" height="332" fill="none"></rect></clipPath></defs><rect fill="#ffffff" class="highcharts-background" x="0" y="0" width="600" height="400" rx="0" ry="0"></rect><rect fill="none" class="highcharts-plot-background" x="10" y="53" width="580" height="332"></rect><rect fill="none" class="highcharts-plot-border" x="10" y="53" width="580" height="332"></rect><g class="highcharts-series-group"><g class="highcharts-series highcharts-series-0 highcharts-pie-series " transform="translate(10,53) scale(1 1)"><path fill="#7cb5ec" d="M 291.971282078279 40.00000292453558 A 141 141 0 1 1 157.96362366748892 224.76356726375786 L 292 181 A 0 0 0 1 0 292 181 Z" transform="translate(8,6)" stroke="#ffffff" stroke-width="1" stroke-linejoin="round" class="highcharts-point highcharts-point-select highcharts-color-0"></path><path fill="#434348" d="M 157.91992712570166 224.62950902798298 A 141 141 0 0 1 177.85313427940895 98.22625388346042 L 292 181 A 0 0 0 0 0 292 181 Z" transform="translate(0,0)" stroke="#ffffff" stroke-width="1" stroke-linejoin="round" class="highcharts-point highcharts-color-1"></path><path fill="#90ed7d" d="M 177.93596508515793 98.11214842363394 A 141 141 0 0 1 248.26373326213846 46.954712981639574 L 292 181 A 0 0 0 0 0 292 181 Z" transform="translate(0,0)" stroke="#ffffff" stroke-width="1" stroke-linejoin="round" class="highcharts-point highcharts-color-2"></path><path fill="#f7a35c" d="M 248.39780039494752 46.91104374482899 A 141 141 0 0 1 291.8041538287319 40.000136013267024 L 292 181 A 0 0 0 0 0 292 181 Z" transform="translate(0,0)" stroke="#ffffff" stroke-width="1" stroke-linejoin="round" class="highcharts-point highcharts-color-3"></path></g><g class="highcharts-markers highcharts-series-0 highcharts-pie-series " transform="translate(10,53) scale(1 1)"></g></g><text x="300" text-anchor="middle" class="highcharts-title" style="color:#333333;font-size:18px;fill:#333333;" y="24"><tspan>神童无人机Token分配</tspan></text><text x="300" text-anchor="middle" class="highcharts-subtitle" style="color:#666666;fill:#666666;" y="52"></text><g class="highcharts-data-labels highcharts-series-0 highcharts-pie-series " visibility="visible" transform="translate(10,53) scale(1 1)"><path fill="none" class="highcharts-data-label-connector highcharts-color-0" stroke="#7cb5ec" stroke-width="1" d="M 435.341906038116 281.5112781420129 C 430.341906038116 281.5112781420129 415.77960013936695 270.9311436007484 410.92549817311726 267.40443208699355 L 406.0713962068676 263.8777205732387"></path><path fill="none" class="highcharts-data-label-connector highcharts-color-1" stroke="#434348" stroke-width="1" d="M 118.10529375823145 154.24970647812054 C 123.10529375823145 154.24970647812054 140.88368388894392 157.0655268488447 146.80981393251474 158.0041336390861 L 152.73594397608557 158.94274042932747"></path><path fill="none" class="highcharts-data-label-connector highcharts-color-2" stroke="#90ed7d" stroke-width="1" d="M 186.48872185798712 42.658093961884006 C 191.48872185798712 42.658093961884006 202.06885639925162 57.22039986063305 205.59556791300645 62.07450182688274 L 209.12227942676128 66.92860379313242"></path><path fill="none" class="highcharts-data-label-connector highcharts-color-3" stroke="#f7a35c" stroke-width="1" d="M 260.24970647812046 12.105293758231465 C 265.24970647812046 12.105293758231465 268.0655268488446 29.88368388894395 269.00413363908604 35.80981393251477 L 269.94274042932744 41.73594397608559"></path><g class="highcharts-label highcharts-data-label highcharts-data-label-color-0 " style="cursor:pointer;" transform="translate(440,272)"><text x="5" style="font-size:11px;font-weight:bold;color:black;fill:black;" y="16"><tspan style="font-weight: bold;" x="5" y="16" class="highcharts-text-outline" fill="#FFFFFF" stroke="#FFFFFF" stroke-width="2px" stroke-linejoin="round">用户</tspan><tspan dx="0" class="highcharts-text-outline" fill="#FFFFFF" stroke="#FFFFFF" stroke-width="2px" stroke-linejoin="round" style="">: 70.0 %</tspan><tspan style="font-weight:bold" x="5" y="16">用户</tspan><tspan dx="0">: 70.0 %</tspan></text></g><g class="highcharts-label highcharts-data-label highcharts-data-label-color-1 " style="cursor:pointer;" transform="translate(13,144)"><text x="5" style="font-size:11px;font-weight:bold;color:black;fill:black;" y="16"><tspan style="font-weight: bold;" x="5" y="16" class="highcharts-text-outline" fill="#FFFFFF" stroke="#FFFFFF" stroke-width="2px" stroke-linejoin="round">创始团队</tspan><tspan dx="0" class="highcharts-text-outline" fill="#FFFFFF" stroke="#FFFFFF" stroke-width="2px" stroke-linejoin="round" style="">: 15.0 %</tspan><tspan style="font-weight:bold" x="5" y="16">创始团队</tspan><tspan dx="0">: 15.0 %</tspan></text></g><g class="highcharts-label highcharts-data-label highcharts-data-label-color-2 " style="cursor:pointer;" transform="translate(93,33)"><text x="5" style="font-size:11px;font-weight:bold;color:black;fill:black;" y="16"><tspan style="font-weight: bold;" x="5" y="16" class="highcharts-text-outline" fill="#FFFFFF" stroke="#FFFFFF" stroke-width="2px" stroke-linejoin="round">投资人</tspan><tspan dx="0" class="highcharts-text-outline" fill="#FFFFFF" stroke="#FFFFFF" stroke-width="2px" stroke-linejoin="round" style="">: 10.0 %</tspan><tspan style="font-weight:bold" x="5" y="16">投资人</tspan><tspan dx="0">: 10.0 %</tspan></text></g><g class="highcharts-label highcharts-data-label highcharts-data-label-color-3 " style="cursor:pointer;" transform="translate(185,2)"><text x="5" style="font-size:11px;font-weight:bold;color:black;fill:black;" y="16"><tspan style="font-weight: bold;" x="5" y="16" class="highcharts-text-outline" fill="#FFFFFF" stroke="#FFFFFF" stroke-width="2px" stroke-linejoin="round">推广</tspan><tspan dx="0" class="highcharts-text-outline" fill="#FFFFFF" stroke="#FFFFFF" stroke-width="2px" stroke-linejoin="round" style="">: 5.0 %</tspan><tspan style="font-weight:bold" x="5" y="16">推广</tspan><tspan dx="0">: 5.0 %</tspan></text></g></g><g class="highcharts-legend"><rect fill="none" class="highcharts-legend-box" rx="0" ry="0" x="0" y="0" width="8" height="8" visibility="hidden"></rect><g><g></g></g></g><text x="590" class="highcharts-credits" text-anchor="end" style="cursor:pointer;color:#999999;font-size:9px;fill:#999999;" y="395">mingda.space</text></svg>