<?xml version="1.0" standalone="no"?><!DOCTYPE svg PUBLIC "-//W3C//DTD SVG 1.1//EN" "http://www.w3.org/Graphics/SVG/1.1/DTD/svg11.dtd"><svg xmlns:xlink="http://www.w3.org/1999/xlink" version="1.1" class="highcharts-root" style="font-family:&quot;Lucida Grande&quot;, &quot;Lucida Sans Unicode&quot;, Arial, Helvetica, sans-serif;font-size:12px;" xmlns="http://www.w3.org/2000/svg" width="600" height="400" viewBox="0 0 600 400"><desc>Created with Highcharts 6.1.0</desc><defs><clipPath id="highcharts-ip0k5ia-7"><rect x="0" y="0" width="520" height="251" fill="none"></rect></clipPath></defs><rect fill="#ffffff" class="highcharts-background" x="0" y="0" width="600" height="400" rx="0" ry="0"></rect><rect fill="none" class="highcharts-plot-background" x="70" y="71" width="520" height="251"></rect><g class="highcharts-grid highcharts-xaxis-grid "><path fill="none" class="highcharts-grid-line" d="M 74.5 71 L 74.5 322" opacity="1"></path><path fill="none" class="highcharts-grid-line" d="M 154.5 71 L 154.5 322" opacity="1"></path><path fill="none" class="highcharts-grid-line" d="M 233.5 71 L 233.5 322" opacity="1"></path><path fill="none" class="highcharts-grid-line" d="M 313.5 71 L 313.5 322" opacity="1"></path><path fill="none" class="highcharts-grid-line" d="M 393.5 71 L 393.5 322" opacity="1"></path><path fill="none" class="highcharts-grid-line" d="M 472.5 71 L 472.5 322" opacity="1"></path><path fill="none" class="highcharts-grid-line" d="M 552.5 71 L 552.5 322" opacity="1"></path></g><g class="highcharts-grid highcharts-yaxis-grid "><path fill="none" stroke="#e6e6e6" stroke-width="1" class="highcharts-grid-line" d="M 70 322.5 L 590 322.5" opacity="1"></path><path fill="none" stroke="#e6e6e6" stroke-width="1" class="highcharts-grid-line" d="M 70 259.5 L 590 259.5" opacity="1"></path><path fill="none" stroke="#e6e6e6" stroke-width="1" class="highcharts-grid-line" d="M 70 197.5 L 590 197.5" opacity="1"></path><path fill="none" stroke="#e6e6e6" stroke-width="1" class="highcharts-grid-line" d="M 70 134.5 L 590 134.5" opacity="1"></path><path fill="none" stroke="#e6e6e6" stroke-width="1" class="highcharts-grid-line" d="M 70 70.5 L 590 70.5" opacity="1"></path></g><rect fill="none" class="highcharts-plot-border" x="70" y="71" width="520" height="251"></rect><g class="highcharts-axis highcharts-xaxis "><path fill="none" class="highcharts-tick" stroke="#ccd6eb" stroke-width="1" d="M 74.5 322 L 74.5 332" opacity="1"></path><path fill="none" class="highcharts-tick" stroke="#ccd6eb" stroke-width="1" d="M 154.5 322 L 154.5 332" opacity="1"></path><path fill="none" class="highcharts-tick" stroke="#ccd6eb" stroke-width="1" d="M 233.5 322 L 233.5 332" opacity="1"></path><path fill="none" class="highcharts-tick" stroke="#ccd6eb" stroke-width="1" d="M 313.5 322 L 313.5 332" opacity="1"></path><path fill="none" class="highcharts-tick" stroke="#ccd6eb" stroke-width="1" d="M 393.5 322 L 393.5 332" opacity="1"></path><path fill="none" class="highcharts-tick" stroke="#ccd6eb" stroke-width="1" d="M 472.5 322 L 472.5 332" opacity="1"></path><path fill="none" class="highcharts-tick" stroke="#ccd6eb" stroke-width="1" d="M 552.5 322 L 552.5 332" opacity="1"></path><path fill="none" class="highcharts-axis-line" stroke="#ccd6eb" stroke-width="1" d="M 70 322.5 L 590 322.5"></path></g><g class="highcharts-axis highcharts-yaxis "><text x="25.609375" text-anchor="middle" transform="translate(0,0) rotate(270 25.609375 196.5)" class="highcharts-axis-title" style="color:#666666;fill:#666666;" y="196.5"><tspan>Billions</tspan></text><path fill="none" class="highcharts-axis-line" d="M 70 71 L 70 322"></path></g><g class="highcharts-series-group"><g class="highcharts-series highcharts-series-0 highcharts-area-series highcharts-color-0 " transform="translate(70,71) scale(1 1)" clip-path="url(#highcharts-ip0k5ia-7)"><path fill="rgb(124,181,236)" fill-opacity="0.75" d="M 5.0980392156863 251 L 36.960784313725 197.48680000000002 L 68.823529411765 171.50830000000002 L 100.6862745098 150.60000000000002 L 132.54901960784 127.18170000000002 L 164.41176470588 108.75830000000002 L 196.27450980392 87.85000000000002 L 228.13725490196 77.81 L 260 70.28000000000003 L 291.86274509804 62.75000000000003 L 323.72549019608 55.22000000000003 L 355.58823529412 50.20000000000002 L 387.45098039216 45.18000000000001 L 419.3137254902 40.160000000000025 L 451.17647058824 35.140000000000015 L 483.03921568627 30.120000000000005 L 514.90196078431 27.610000000000014 L 514.90196078431 52.71000000000001 L 483.03921568627 55.22000000000003 L 451.17647058824 60.24000000000001 L 419.3137254902 65.26000000000002 L 387.45098039216 70.28000000000003 L 355.58823529412 75.30000000000001 L 323.72549019608 80.32000000000002 L 291.86274509804 87.85000000000002 L 260 95.38000000000002 L 228.13725490196 102.91000000000003 L 196.27450980392 112.95000000000002 L 164.41176470588 133.85829999999999 L 132.54901960784 152.2817 L 100.6862745098 175.7 L 68.823529411765 196.60829999999999 L 36.960784313725 222.5868 L 5.0980392156863 251" class="highcharts-area"></path><path fill="none" d="M 5.0980392156863 251 L 36.960784313725 197.48680000000002 L 68.823529411765 171.50830000000002 L 100.6862745098 150.60000000000002 L 132.54901960784 127.18170000000002 L 164.41176470588 108.75830000000002 L 196.27450980392 87.85000000000002 L 228.13725490196 77.81 L 260 70.28000000000003 L 291.86274509804 62.75000000000003 L 323.72549019608 55.22000000000003 L 355.58823529412 50.20000000000002 L 387.45098039216 45.18000000000001 L 419.3137254902 40.160000000000025 L 451.17647058824 35.140000000000015 L 483.03921568627 30.120000000000005 L 514.90196078431 27.610000000000014" class="highcharts-graph" stroke="#666666" stroke-width="1" stroke-linejoin="round" stroke-linecap="round"></path></g><g class="highcharts-markers highcharts-series-0 highcharts-area-series highcharts-color-0 " transform="translate(70,71) scale(1 1)" clip-path="none"><path fill="#7cb5ec" d="M 9 251 A 4 4 0 1 1 8.999998000000167 250.99600000066667 Z" stroke="#666666" stroke-width="1" class="highcharts-point highcharts-color-0"></path><path fill="#7cb5ec" d="M 40 197 A 4 4 0 1 1 39.99999800000017 196.99600000066667 Z" stroke="#666666" stroke-width="1" class="highcharts-point highcharts-color-0"></path><path fill="#7cb5ec" d="M 72 172 A 4 4 0 1 1 71.99999800000016 171.99600000066667 Z" stroke="#666666" stroke-width="1" class="highcharts-point highcharts-color-0"></path><path fill="#7cb5ec" d="M 104 151 A 4 4 0 1 1 103.99999800000016 150.99600000066667 Z" stroke="#666666" stroke-width="1" class="highcharts-point highcharts-color-0"></path><path fill="#7cb5ec" d="M 136 127 A 4 4 0 1 1 135.99999800000018 126.99600000066667 Z" stroke="#666666" stroke-width="1" class="highcharts-point highcharts-color-0"></path><path fill="#7cb5ec" d="M 168 109 A 4 4 0 1 1 167.99999800000018 108.99600000066667 Z" stroke="#666666" stroke-width="1" class="highcharts-point highcharts-color-0"></path><path fill="#7cb5ec" d="M 200 88 A 4 4 0 1 1 199.99999800000018 87.99600000066667 Z" stroke="#666666" stroke-width="1" class="highcharts-point highcharts-color-0"></path><path fill="#7cb5ec" d="M 232 78 A 4 4 0 1 1 231.99999800000018 77.99600000066667 Z" stroke="#666666" stroke-width="1" class="highcharts-point highcharts-color-0"></path><path fill="#7cb5ec" d="M 264 70 A 4 4 0 1 1 263.9999980000002 69.99600000066667 Z" stroke="#666666" stroke-width="1" class="highcharts-point highcharts-color-0"></path><path fill="#7cb5ec" d="M 295 63 A 4 4 0 1 1 294.9999980000002 62.99600000066666 Z" stroke="#666666" stroke-width="1" class="highcharts-point highcharts-color-0"></path><path fill="#7cb5ec" d="M 327 55 A 4 4 0 1 1 326.9999980000002 54.99600000066666 Z" stroke="#666666" stroke-width="1" class="highcharts-point highcharts-color-0"></path><path fill="#7cb5ec" d="M 359 50 A 4 4 0 1 1 358.9999980000002 49.99600000066666 Z" stroke="#666666" stroke-width="1" class="highcharts-point highcharts-color-0"></path><path fill="#7cb5ec" d="M 391 45 A 4 4 0 1 1 390.9999980000002 44.99600000066666 Z" stroke="#666666" stroke-width="1" class="highcharts-point highcharts-color-0"></path><path fill="#7cb5ec" d="M 423 40 A 4 4 0 1 1 422.9999980000002 39.99600000066666 Z" stroke="#666666" stroke-width="1" class="highcharts-point highcharts-color-0"></path><path fill="#7cb5ec" d="M 455 35 A 4 4 0 1 1 454.9999980000002 34.99600000066666 Z" stroke="#666666" stroke-width="1" class="highcharts-point highcharts-color-0"></path><path fill="#7cb5ec" d="M 487 30 A 4 4 0 1 1 486.9999980000002 29.996000000666665 Z" stroke="#666666" stroke-width="1" class="highcharts-point highcharts-color-0"></path><path fill="#7cb5ec" d="M 518 28 A 4 4 0 1 1 517.9999980000001 27.996000000666665 Z" stroke="#666666" stroke-width="1" class="highcharts-point highcharts-color-0"></path></g><g class="highcharts-series highcharts-series-1 highcharts-area-series highcharts-color-1 " transform="translate(70,71) scale(1 1)" clip-path="url(#highcharts-ip0k5ia-7)"><path fill="rgb(67,67,72)" fill-opacity="0.75" d="M 5.0980392156863 251 L 36.960784313725 222.5868 L 68.823529411765 196.60829999999999 L 100.6862745098 175.7 L 132.54901960784 152.2817 L 164.41176470588 133.85829999999999 L 196.27450980392 112.95000000000002 L 228.13725490196 102.91000000000003 L 260 95.38000000000002 L 291.86274509804 87.85000000000002 L 323.72549019608 80.32000000000002 L 355.58823529412 75.30000000000001 L 387.45098039216 70.28000000000003 L 419.3137254902 65.26000000000002 L 451.17647058824 60.24000000000001 L 483.03921568627 55.22000000000003 L 514.90196078431 52.71000000000001 L 514.90196078431 90.36000000000001 L 483.03921568627 92.87 L 451.17647058824 97.89000000000001 L 419.3137254902 102.91000000000003 L 387.45098039216 107.93 L 355.58823529412 112.95000000000002 L 323.72549019608 117.97 L 291.86274509804 125.50000000000001 L 260 133.03000000000003 L 228.13725490196 140.56 L 196.27450980392 150.60000000000002 L 164.41176470588 165.23329999999999 L 132.54901960784 177.38170000000002 L 100.6862745098 194.525 L 68.823529411765 209.1583 L 36.960784313725 228.8367 L 5.0980392156863 251" class="highcharts-area"></path><path fill="none" d="M 5.0980392156863 251 L 36.960784313725 222.5868 L 68.823529411765 196.60829999999999 L 100.6862745098 175.7 L 132.54901960784 152.2817 L 164.41176470588 133.85829999999999 L 196.27450980392 112.95000000000002 L 228.13725490196 102.91000000000003 L 260 95.38000000000002 L 291.86274509804 87.85000000000002 L 323.72549019608 80.32000000000002 L 355.58823529412 75.30000000000001 L 387.45098039216 70.28000000000003 L 419.3137254902 65.26000000000002 L 451.17647058824 60.24000000000001 L 483.03921568627 55.22000000000003 L 514.90196078431 52.71000000000001" class="highcharts-graph" stroke="#666666" stroke-width="1" stroke-linejoin="round" stroke-linecap="round"></path></g><g class="highcharts-markers highcharts-series-1 highcharts-area-series highcharts-color-1 " transform="translate(70,71) scale(1 1)" clip-path="none"><path fill="#434348" d="M 5 247 L 9 251 5 255 1 251 Z" stroke="#666666" stroke-width="1" class="highcharts-point highcharts-color-1"></path><path fill="#434348" d="M 36 219 L 40 223 36 227 32 223 Z" stroke="#666666" stroke-width="1" class="highcharts-point highcharts-color-1"></path><path fill="#434348" d="M 68 193 L 72 197 68 201 64 197 Z" stroke="#666666" stroke-width="1" class="highcharts-point highcharts-color-1"></path><path fill="#434348" d="M 100 172 L 104 176 100 180 96 176 Z" stroke="#666666" stroke-width="1" class="highcharts-point highcharts-color-1"></path><path fill="#434348" d="M 132 148 L 136 152 132 156 128 152 Z" stroke="#666666" stroke-width="1" class="highcharts-point highcharts-color-1"></path><path fill="#434348" d="M 164 130 L 168 134 164 138 160 134 Z" stroke="#666666" stroke-width="1" class="highcharts-point highcharts-color-1"></path><path fill="#434348" d="M 196 109 L 200 113 196 117 192 113 Z" stroke="#666666" stroke-width="1" class="highcharts-point highcharts-color-1"></path><path fill="#434348" d="M 228 99 L 232 103 228 107 224 103 Z" stroke="#666666" stroke-width="1" class="highcharts-point highcharts-color-1"></path><path fill="#434348" d="M 260 91 L 264 95 260 99 256 95 Z" stroke="#666666" stroke-width="1" class="highcharts-point highcharts-color-1"></path><path fill="#434348" d="M 291 84 L 295 88 291 92 287 88 Z" stroke="#666666" stroke-width="1" class="highcharts-point highcharts-color-1"></path><path fill="#434348" d="M 323 76 L 327 80 323 84 319 80 Z" stroke="#666666" stroke-width="1" class="highcharts-point highcharts-color-1"></path><path fill="#434348" d="M 355 71 L 359 75 355 79 351 75 Z" stroke="#666666" stroke-width="1" class="highcharts-point highcharts-color-1"></path><path fill="#434348" d="M 387 66 L 391 70 387 74 383 70 Z" stroke="#666666" stroke-width="1" class="highcharts-point highcharts-color-1"></path><path fill="#434348" d="M 419 61 L 423 65 419 69 415 65 Z" stroke="#666666" stroke-width="1" class="highcharts-point highcharts-color-1"></path><path fill="#434348" d="M 451 56 L 455 60 451 64 447 60 Z" stroke="#666666" stroke-width="1" class="highcharts-point highcharts-color-1"></path><path fill="#434348" d="M 483 51 L 487 55 483 59 479 55 Z" stroke="#666666" stroke-width="1" class="highcharts-point highcharts-color-1"></path><path fill="#434348" d="M 514 49 L 518 53 514 57 510 53 Z" stroke="#666666" stroke-width="1" class="highcharts-point highcharts-color-1"></path></g><g class="highcharts-series highcharts-series-2 highcharts-area-series highcharts-color-2 " transform="translate(70,71) scale(1 1)" clip-path="url(#highcharts-ip0k5ia-7)"><path fill="rgb(144,237,125)" fill-opacity="0.75" d="M 5.0980392156863 251 L 36.960784313725 228.8367 L 68.823529411765 209.1583 L 100.6862745098 194.525 L 132.54901960784 177.38170000000002 L 164.41176470588 165.23329999999999 L 196.27450980392 150.60000000000002 L 228.13725490196 140.56 L 260 133.03000000000003 L 291.86274509804 125.50000000000001 L 323.72549019608 117.97 L 355.58823529412 112.95000000000002 L 387.45098039216 107.93 L 419.3137254902 102.91000000000003 L 451.17647058824 97.89000000000001 L 483.03921568627 92.87 L 514.90196078431 90.36000000000001 L 514.90196078431 102.91000000000003 L 483.03921568627 105.42000000000002 L 451.17647058824 110.44 L 419.3137254902 115.46000000000001 L 387.45098039216 120.48000000000002 L 355.58823529412 125.50000000000001 L 323.72549019608 130.52 L 291.86274509804 138.05 L 260 145.58 L 228.13725490196 153.11 L 196.27450980392 163.15 L 164.41176470588 175.7 L 132.54901960784 185.74 L 100.6862745098 200.8 L 68.823529411765 213.35 L 36.960784313725 230.92000000000002 L 5.0980392156863 251" class="highcharts-area"></path><path fill="none" d="M 5.0980392156863 251 L 36.960784313725 228.8367 L 68.823529411765 209.1583 L 100.6862745098 194.525 L 132.54901960784 177.38170000000002 L 164.41176470588 165.23329999999999 L 196.27450980392 150.60000000000002 L 228.13725490196 140.56 L 260 133.03000000000003 L 291.86274509804 125.50000000000001 L 323.72549019608 117.97 L 355.58823529412 112.95000000000002 L 387.45098039216 107.93 L 419.3137254902 102.91000000000003 L 451.17647058824 97.89000000000001 L 483.03921568627 92.87 L 514.90196078431 90.36000000000001" class="highcharts-graph" stroke="#666666" stroke-width="1" stroke-linejoin="round" stroke-linecap="round"></path></g><g class="highcharts-markers highcharts-series-2 highcharts-area-series highcharts-color-2 " transform="translate(70,71) scale(1 1)" clip-path="none"><path fill="#90ed7d" d="M 1 247 L 9 247 9 255 1 255 Z" stroke="#666666" stroke-width="1" class="highcharts-point highcharts-color-2"></path><path fill="#90ed7d" d="M 32 225 L 40 225 40 233 32 233 Z" stroke="#666666" stroke-width="1" class="highcharts-point highcharts-color-2"></path><path fill="#90ed7d" d="M 64 205 L 72 205 72 213 64 213 Z" stroke="#666666" stroke-width="1" class="highcharts-point highcharts-color-2"></path><path fill="#90ed7d" d="M 96 191 L 104 191 104 199 96 199 Z" stroke="#666666" stroke-width="1" class="highcharts-point highcharts-color-2"></path><path fill="#90ed7d" d="M 128 173 L 136 173 136 181 128 181 Z" stroke="#666666" stroke-width="1" class="highcharts-point highcharts-color-2"></path><path fill="#90ed7d" d="M 160 161 L 168 161 168 169 160 169 Z" stroke="#666666" stroke-width="1" class="highcharts-point highcharts-color-2"></path><path fill="#90ed7d" d="M 192 147 L 200 147 200 155 192 155 Z" stroke="#666666" stroke-width="1" class="highcharts-point highcharts-color-2"></path><path fill="#90ed7d" d="M 224 137 L 232 137 232 145 224 145 Z" stroke="#666666" stroke-width="1" class="highcharts-point highcharts-color-2"></path><path fill="#90ed7d" d="M 256 129 L 264 129 264 137 256 137 Z" stroke="#666666" stroke-width="1" class="highcharts-point highcharts-color-2"></path><path fill="#90ed7d" d="M 287 122 L 295 122 295 130 287 130 Z" stroke="#666666" stroke-width="1" class="highcharts-point highcharts-color-2"></path><path fill="#90ed7d" d="M 319 114 L 327 114 327 122 319 122 Z" stroke="#666666" stroke-width="1" class="highcharts-point highcharts-color-2"></path><path fill="#90ed7d" d="M 351 109 L 359 109 359 117 351 117 Z" stroke="#666666" stroke-width="1" class="highcharts-point highcharts-color-2"></path><path fill="#90ed7d" d="M 383 104 L 391 104 391 112 383 112 Z" stroke="#666666" stroke-width="1" class="highcharts-point highcharts-color-2"></path><path fill="#90ed7d" d="M 415 99 L 423 99 423 107 415 107 Z" stroke="#666666" stroke-width="1" class="highcharts-point highcharts-color-2"></path><path fill="#90ed7d" d="M 447 94 L 455 94 455 102 447 102 Z" stroke="#666666" stroke-width="1" class="highcharts-point highcharts-color-2"></path><path fill="#90ed7d" d="M 479 89 L 487 89 487 97 479 97 Z" stroke="#666666" stroke-width="1" class="highcharts-point highcharts-color-2"></path><path fill="#90ed7d" d="M 510 86 L 518 86 518 94 510 94 Z" stroke="#666666" stroke-width="1" class="highcharts-point highcharts-color-2"></path></g><g class="highcharts-series highcharts-series-3 highcharts-area-series highcharts-color-3 " transform="translate(70,71) scale(1 1)" clip-path="url(#highcharts-ip0k5ia-7)"><path fill="rgb(247,163,92)" fill-opacity="0.75" d="M 5.0980392156863 251 L 36.960784313725 230.92000000000002 L 68.823529411765 213.35 L 100.6862745098 200.8 L 132.54901960784 185.74 L 164.41176470588 175.7 L 196.27450980392 163.15 L 228.13725490196 153.11 L 260 145.58 L 291.86274509804 138.05 L 323.72549019608 130.52 L 355.58823529412 125.50000000000001 L 387.45098039216 120.48000000000002 L 419.3137254902 115.46000000000001 L 451.17647058824 110.44 L 483.03921568627 105.42000000000002 L 514.90196078431 102.91000000000003 L 514.90196078431 251 L 483.03921568627 251 L 451.17647058824 251 L 419.3137254902 251 L 387.45098039216 251 L 355.58823529412 251 L 323.72549019608 251 L 291.86274509804 251 L 260 251 L 228.13725490196 251 L 196.27450980392 251 L 164.41176470588 251 L 132.54901960784 251 L 100.6862745098 251 L 68.823529411765 251 L 36.960784313725 251 L 5.0980392156863 251" class="highcharts-area"></path><path fill="none" d="M 5.0980392156863 251 L 36.960784313725 230.92000000000002 L 68.823529411765 213.35 L 100.6862745098 200.8 L 132.54901960784 185.74 L 164.41176470588 175.7 L 196.27450980392 163.15 L 228.13725490196 153.11 L 260 145.58 L 291.86274509804 138.05 L 323.72549019608 130.52 L 355.58823529412 125.50000000000001 L 387.45098039216 120.48000000000002 L 419.3137254902 115.46000000000001 L 451.17647058824 110.44 L 483.03921568627 105.42000000000002 L 514.90196078431 102.91000000000003" class="highcharts-graph" stroke="#666666" stroke-width="1" stroke-linejoin="round" stroke-linecap="round"></path></g><g class="highcharts-markers highcharts-series-3 highcharts-area-series highcharts-color-3 " transform="translate(70,71) scale(1 1)" clip-path="none"><path fill="#f7a35c" d="M 5 247 L 9 255 1 255 Z" stroke="#666666" stroke-width="1" class="highcharts-point highcharts-color-3"></path><path fill="#f7a35c" d="M 36 227 L 40 235 32 235 Z" stroke="#666666" stroke-width="1" class="highcharts-point highcharts-color-3"></path><path fill="#f7a35c" d="M 68 209 L 72 217 64 217 Z" stroke="#666666" stroke-width="1" class="highcharts-point highcharts-color-3"></path><path fill="#f7a35c" d="M 100 197 L 104 205 96 205 Z" stroke="#666666" stroke-width="1" class="highcharts-point highcharts-color-3"></path><path fill="#f7a35c" d="M 132 182 L 136 190 128 190 Z" stroke="#666666" stroke-width="1" class="highcharts-point highcharts-color-3"></path><path fill="#f7a35c" d="M 164 172 L 168 180 160 180 Z" stroke="#666666" stroke-width="1" class="highcharts-point highcharts-color-3"></path><path fill="#f7a35c" d="M 196 159 L 200 167 192 167 Z" stroke="#666666" stroke-width="1" class="highcharts-point highcharts-color-3"></path><path fill="#f7a35c" d="M 228 149 L 232 157 224 157 Z" stroke="#666666" stroke-width="1" class="highcharts-point highcharts-color-3"></path><path fill="#f7a35c" d="M 260 142 L 264 150 256 150 Z" stroke="#666666" stroke-width="1" class="highcharts-point highcharts-color-3"></path><path fill="#f7a35c" d="M 291 134 L 295 142 287 142 Z" stroke="#666666" stroke-width="1" class="highcharts-point highcharts-color-3"></path><path fill="#f7a35c" d="M 323 127 L 327 135 319 135 Z" stroke="#666666" stroke-width="1" class="highcharts-point highcharts-color-3"></path><path fill="#f7a35c" d="M 355 122 L 359 130 351 130 Z" stroke="#666666" stroke-width="1" class="highcharts-point highcharts-color-3"></path><path fill="#f7a35c" d="M 387 116 L 391 124 383 124 Z" stroke="#666666" stroke-width="1" class="highcharts-point highcharts-color-3"></path><path fill="#f7a35c" d="M 419 111 L 423 119 415 119 Z" stroke="#666666" stroke-width="1" class="highcharts-point highcharts-color-3"></path><path fill="#f7a35c" d="M 451 106 L 455 114 447 114 Z" stroke="#666666" stroke-width="1" class="highcharts-point highcharts-color-3"></path><path fill="#f7a35c" d="M 483 101 L 487 109 479 109 Z" stroke="#666666" stroke-width="1" class="highcharts-point highcharts-color-3"></path><path fill="#f7a35c" d="M 514 99 L 518 107 510 107 Z" stroke="#666666" stroke-width="1" class="highcharts-point highcharts-color-3"></path></g></g><text x="300" text-anchor="middle" class="highcharts-title" style="color:#333333;font-size:18px;fill:#333333;" y="24"><tspan>Token供应量</tspan></text><text x="300" text-anchor="middle" class="highcharts-subtitle" style="color:#666666;fill:#666666;" y="52"><tspan>神童无人机</tspan></text><g class="highcharts-legend" transform="translate(152,356)"><rect fill="none" class="highcharts-legend-box" rx="0" ry="0" x="0" y="0" width="297" height="29" visibility="visible"></rect><g><g><g class="highcharts-legend-item highcharts-area-series highcharts-color-0 highcharts-series-0" transform="translate(8,3)"><text x="21" style="color:#333333;font-size:12px;font-weight:bold;cursor:pointer;fill:#333333;" text-anchor="start" y="15"><tspan>投资人</tspan></text><rect x="2" y="4" width="12" height="12" fill="#7cb5ec" rx="6" ry="6" class="highcharts-point"></rect></g><g class="highcharts-legend-item highcharts-area-series highcharts-color-1 highcharts-series-1" transform="translate(87,3)"><text x="21" y="15" style="color:#333333;font-size:12px;font-weight:bold;cursor:pointer;fill:#333333;" text-anchor="start"><tspan>创业团队</tspan></text><rect x="2" y="4" width="12" height="12" fill="#434348" rx="6" ry="6" class="highcharts-point"></rect></g><g class="highcharts-legend-item highcharts-area-series highcharts-color-2 highcharts-series-2" transform="translate(178,3)"><text x="21" y="15" style="color:#333333;font-size:12px;font-weight:bold;cursor:pointer;fill:#333333;" text-anchor="start"><tspan>推广</tspan></text><rect x="2" y="4" width="12" height="12" fill="#90ed7d" rx="6" ry="6" class="highcharts-point"></rect></g><g class="highcharts-legend-item highcharts-area-series highcharts-color-3 highcharts-series-3" transform="translate(244,3)"><text x="21" y="15" style="color:#333333;font-size:12px;font-weight:bold;cursor:pointer;fill:#333333;" text-anchor="start"><tspan>用户</tspan></text><rect x="2" y="4" width="12" height="12" fill="#f7a35c" rx="6" ry="6" class="highcharts-point"></rect></g></g></g></g><g class="highcharts-axis-labels highcharts-xaxis-labels "><text x="75.098039215686" style="color:#666666;cursor:default;font-size:11px;fill:#666666;" text-anchor="middle" transform="translate(0,0)" y="341" opacity="1">0</text><text x="154.75490196078" style="color:#666666;cursor:default;font-size:11px;fill:#666666;" text-anchor="middle" transform="translate(0,0)" y="341" opacity="1">2.5</text><text x="234.41176470588" style="color:#666666;cursor:default;font-size:11px;fill:#666666;" text-anchor="middle" transform="translate(0,0)" y="341" opacity="1">5</text><text x="314.06862745098" style="color:#666666;cursor:default;font-size:11px;fill:#666666;" text-anchor="middle" transform="translate(0,0)" y="341" opacity="1">7.5</text><text x="393.72549019608" style="color:#666666;cursor:default;font-size:11px;fill:#666666;" text-anchor="middle" transform="translate(0,0)" y="341" opacity="1">10</text><text x="473.38235294118" style="color:#666666;cursor:default;font-size:11px;fill:#666666;" text-anchor="middle" transform="translate(0,0)" y="341" opacity="1">12.5</text><text x="553.03921568627" style="color:#666666;cursor:default;font-size:11px;fill:#666666;" text-anchor="middle" transform="translate(0,0)" y="341" opacity="1">15</text></g><g class="highcharts-axis-labels highcharts-yaxis-labels "><text x="55" style="color:#666666;cursor:default;font-size:11px;fill:#666666;" text-anchor="end" transform="translate(0,0)" y="326" opacity="1">0</text><text x="55" style="color:#666666;cursor:default;font-size:11px;fill:#666666;" text-anchor="end" transform="translate(0,0)" y="263" opacity="1">0.5</text><text x="55" style="color:#666666;cursor:default;font-size:11px;fill:#666666;" text-anchor="end" transform="translate(0,0)" y="201" opacity="1">1</text><text x="55" style="color:#666666;cursor:default;font-size:11px;fill:#666666;" text-anchor="end" transform="translate(0,0)" y="138" opacity="1">1.5</text><text x="55" style="color:#666666;cursor:default;font-size:11px;fill:#666666;" text-anchor="end" transform="translate(0,0)" y="75" opacity="1">2</text></g><text x="590" class="highcharts-credits" text-anchor="end" style="cursor:pointer;color:#999999;font-size:9px;fill:#999999;" y="395">mingda.space</text></svg>