<?xml version="1.0" standalone="no"?><!DOCTYPE svg PUBLIC "-//W3C//DTD SVG 1.1//EN" "http://www.w3.org/Graphics/SVG/1.1/DTD/svg11.dtd"><svg xmlns:xlink="http://www.w3.org/1999/xlink" version="1.1" class="highcharts-root" style="font-family:&quot;Lucida Grande&quot;, &quot;Lucida Sans Unicode&quot;, Arial, Helvetica, sans-serif;font-size:12px;" xmlns="http://www.w3.org/2000/svg" width="600" height="400" viewBox="0 0 600 400"><desc>Created with Highcharts 6.1.0</desc><defs><clipPath id="highcharts-q4d5zho-13"><rect x="0" y="0" width="520" height="228" fill="none"></rect></clipPath></defs><rect fill="#ffffff" class="highcharts-background" x="0" y="0" width="600" height="400" rx="0" ry="0"></rect><rect fill="none" class="highcharts-plot-background" x="70" y="71" width="520" height="228"></rect><g class="highcharts-grid highcharts-xaxis-grid "><path fill="none" class="highcharts-grid-line" d="M 74.5 71 L 74.5 299" opacity="1"></path><path fill="none" class="highcharts-grid-line" d="M 138.5 71 L 138.5 299" opacity="1"></path><path fill="none" class="highcharts-grid-line" d="M 202.5 71 L 202.5 299" opacity="1"></path><path fill="none" class="highcharts-grid-line" d="M 265.5 71 L 265.5 299" opacity="1"></path><path fill="none" class="highcharts-grid-line" d="M 329.5 71 L 329.5 299" opacity="1"></path><path fill="none" class="highcharts-grid-line" d="M 393.5 71 L 393.5 299" opacity="1"></path><path fill="none" class="highcharts-grid-line" d="M 456.5 71 L 456.5 299" opacity="1"></path><path fill="none" class="highcharts-grid-line" d="M 520.5 71 L 520.5 299" opacity="1"></path><path fill="none" class="highcharts-grid-line" d="M 584.5 71 L 584.5 299" opacity="1"></path></g><g class="highcharts-grid highcharts-yaxis-grid "><path fill="none" stroke="#e6e6e6" stroke-width="1" class="highcharts-grid-line" d="M 70 299.5 L 590 299.5" opacity="1"></path><path fill="none" stroke="#e6e6e6" stroke-width="1" class="highcharts-grid-line" d="M 70 242.5 L 590 242.5" opacity="1"></path><path fill="none" stroke="#e6e6e6" stroke-width="1" class="highcharts-grid-line" d="M 70 185.5 L 590 185.5" opacity="1"></path><path fill="none" stroke="#e6e6e6" stroke-width="1" class="highcharts-grid-line" d="M 70 128.5 L 590 128.5" opacity="1"></path><path fill="none" stroke="#e6e6e6" stroke-width="1" class="highcharts-grid-line" d="M 70 70.5 L 590 70.5" opacity="1"></path></g><rect fill="none" class="highcharts-plot-border" x="70" y="71" width="520" height="228"></rect><g class="highcharts-axis highcharts-xaxis "><path fill="none" class="highcharts-tick" stroke="#ccd6eb" stroke-width="1" d="M 74.5 299 L 74.5 309" opacity="1"></path><path fill="none" class="highcharts-tick" stroke="#ccd6eb" stroke-width="1" d="M 138.5 299 L 138.5 309" opacity="1"></path><path fill="none" class="highcharts-tick" stroke="#ccd6eb" stroke-width="1" d="M 202.5 299 L 202.5 309" opacity="1"></path><path fill="none" class="highcharts-tick" stroke="#ccd6eb" stroke-width="1" d="M 265.5 299 L 265.5 309" opacity="1"></path><path fill="none" class="highcharts-tick" stroke="#ccd6eb" stroke-width="1" d="M 329.5 299 L 329.5 309" opacity="1"></path><path fill="none" class="highcharts-tick" stroke="#ccd6eb" stroke-width="1" d="M 393.5 299 L 393.5 309" opacity="1"></path><path fill="none" class="highcharts-tick" stroke="#ccd6eb" stroke-width="1" d="M 456.5 299 L 456.5 309" opacity="1"></path><path fill="none" class="highcharts-tick" stroke="#ccd6eb" stroke-width="1" d="M 520.5 299 L 520.5 309" opacity="1"></path><path fill="none" class="highcharts-tick" stroke="#ccd6eb" stroke-width="1" d="M 584.5 299 L 584.5 309" opacity="1"></path><text x="330" text-anchor="middle" transform="translate(0,0)" class="highcharts-axis-title" style="color:#666666;fill:#666666;" y="338"><tspan>发行时间/年</tspan></text><path fill="none" class="highcharts-axis-line" stroke="#ccd6eb" stroke-width="1" d="M 70 299.5 L 590 299.5"></path></g><g class="highcharts-axis highcharts-yaxis "><text x="25.609375" text-anchor="middle" transform="translate(0,0) rotate(270 25.609375 185)" class="highcharts-axis-title" style="color:#666666;fill:#666666;" y="185"><tspan>Billions</tspan></text><path fill="none" class="highcharts-axis-line" d="M 70 71 L 70 299"></path></g><g class="highcharts-series-group"><g class="highcharts-series highcharts-series-0 highcharts-area-series highcharts-color-0 " transform="translate(70,71) scale(1 1)" clip-path="url(#highcharts-q4d5zho-13)"><path fill="rgb(124,181,236)" fill-opacity="0.75" d="M 5.0980392156863 228 L 36.960784313725 179.3904 L 68.823529411765 155.7924 L 100.6862745098 136.8 L 132.54901960784 115.5276 L 164.41176470588 98.79240000000001 L 196.27450980392 79.80000000000001 L 228.13725490196 70.68 L 260 63.84 L 291.86274509804 57.00000000000003 L 323.72549019608 50.160000000000025 L 355.58823529412 45.60000000000002 L 387.45098039216 41.04000000000002 L 419.3137254902 36.48000000000002 L 451.17647058824 31.920000000000016 L 483.03921568627 27.360000000000014 L 514.90196078431 25.080000000000013 L 514.90196078431 47.880000000000024 L 483.03921568627 50.160000000000025 L 451.17647058824 54.72000000000003 L 419.3137254902 59.28 L 387.45098039216 63.84 L 355.58823529412 68.4 L 323.72549019608 72.96000000000001 L 291.86274509804 79.80000000000001 L 260 86.64000000000001 L 228.13725490196 93.48000000000002 L 196.27450980392 102.60000000000001 L 164.41176470588 121.59240000000001 L 132.54901960784 138.32760000000002 L 100.6862745098 159.60000000000002 L 68.823529411765 178.5924 L 36.960784313725 202.1904 L 5.0980392156863 228" class="highcharts-area"></path><path fill="none" d="M 5.0980392156863 228 L 36.960784313725 179.3904 L 68.823529411765 155.7924 L 100.6862745098 136.8 L 132.54901960784 115.5276 L 164.41176470588 98.79240000000001 L 196.27450980392 79.80000000000001 L 228.13725490196 70.68 L 260 63.84 L 291.86274509804 57.00000000000003 L 323.72549019608 50.160000000000025 L 355.58823529412 45.60000000000002 L 387.45098039216 41.04000000000002 L 419.3137254902 36.48000000000002 L 451.17647058824 31.920000000000016 L 483.03921568627 27.360000000000014 L 514.90196078431 25.080000000000013" class="highcharts-graph" stroke="#666666" stroke-width="1" stroke-linejoin="round" stroke-linecap="round"></path></g><g class="highcharts-markers highcharts-series-0 highcharts-area-series highcharts-color-0 " transform="translate(70,71) scale(1 1)" clip-path="none"><path fill="#7cb5ec" d="M 9 228 A 4 4 0 1 1 8.999998000000167 227.99600000066667 Z" stroke="#666666" stroke-width="1" class="highcharts-point highcharts-color-0"></path><path fill="#7cb5ec" d="M 40 179 A 4 4 0 1 1 39.99999800000017 178.99600000066667 Z" stroke="#666666" stroke-width="1" class="highcharts-point highcharts-color-0"></path><path fill="#7cb5ec" d="M 72 156 A 4 4 0 1 1 71.99999800000016 155.99600000066667 Z" stroke="#666666" stroke-width="1" class="highcharts-point highcharts-color-0"></path><path fill="#7cb5ec" d="M 104 137 A 4 4 0 1 1 103.99999800000016 136.99600000066667 Z" stroke="#666666" stroke-width="1" class="highcharts-point highcharts-color-0"></path><path fill="#7cb5ec" d="M 136 116 A 4 4 0 1 1 135.99999800000018 115.99600000066667 Z" stroke="#666666" stroke-width="1" class="highcharts-point highcharts-color-0"></path><path fill="#7cb5ec" d="M 168 99 A 4 4 0 1 1 167.99999800000018 98.99600000066667 Z" stroke="#666666" stroke-width="1" class="highcharts-point highcharts-color-0"></path><path fill="#7cb5ec" d="M 200 80 A 4 4 0 1 1 199.99999800000018 79.99600000066667 Z" stroke="#666666" stroke-width="1" class="highcharts-point highcharts-color-0"></path><path fill="#7cb5ec" d="M 232 71 A 4 4 0 1 1 231.99999800000018 70.99600000066667 Z" stroke="#666666" stroke-width="1" class="highcharts-point highcharts-color-0"></path><path fill="#7cb5ec" d="M 264 64 A 4 4 0 1 1 263.9999980000002 63.99600000066666 Z" stroke="#666666" stroke-width="1" class="highcharts-point highcharts-color-0"></path><path fill="#7cb5ec" d="M 295 57 A 4 4 0 1 1 294.9999980000002 56.99600000066666 Z" stroke="#666666" stroke-width="1" class="highcharts-point highcharts-color-0"></path><path fill="#7cb5ec" d="M 327 50 A 4 4 0 1 1 326.9999980000002 49.99600000066666 Z" stroke="#666666" stroke-width="1" class="highcharts-point highcharts-color-0"></path><path fill="#7cb5ec" d="M 359 46 A 4 4 0 1 1 358.9999980000002 45.99600000066666 Z" stroke="#666666" stroke-width="1" class="highcharts-point highcharts-color-0"></path><path fill="#7cb5ec" d="M 391 41 A 4 4 0 1 1 390.9999980000002 40.99600000066666 Z" stroke="#666666" stroke-width="1" class="highcharts-point highcharts-color-0"></path><path fill="#7cb5ec" d="M 423 36 A 4 4 0 1 1 422.9999980000002 35.99600000066666 Z" stroke="#666666" stroke-width="1" class="highcharts-point highcharts-color-0"></path><path fill="#7cb5ec" d="M 455 32 A 4 4 0 1 1 454.9999980000002 31.996000000666665 Z" stroke="#666666" stroke-width="1" class="highcharts-point highcharts-color-0"></path><path fill="#7cb5ec" d="M 487 27 A 4 4 0 1 1 486.9999980000002 26.996000000666665 Z" stroke="#666666" stroke-width="1" class="highcharts-point highcharts-color-0"></path><path fill="#7cb5ec" d="M 518 25 A 4 4 0 1 1 517.9999980000001 24.996000000666665 Z" stroke="#666666" stroke-width="1" class="highcharts-point highcharts-color-0"></path></g><g class="highcharts-series highcharts-series-1 highcharts-area-series highcharts-color-1 " transform="translate(70,71) scale(1 1)" clip-path="url(#highcharts-q4d5zho-13)"><path fill="rgb(67,67,72)" fill-opacity="0.75" d="M 5.0980392156863 228 L 36.960784313725 202.1904 L 68.823529411765 178.5924 L 100.6862745098 159.60000000000002 L 132.54901960784 138.32760000000002 L 164.41176470588 121.59240000000001 L 196.27450980392 102.60000000000001 L 228.13725490196 93.48000000000002 L 260 86.64000000000001 L 291.86274509804 79.80000000000001 L 323.72549019608 72.96000000000001 L 355.58823529412 68.4 L 387.45098039216 63.84 L 419.3137254902 59.28 L 451.17647058824 54.72000000000003 L 483.03921568627 50.160000000000025 L 514.90196078431 47.880000000000024 L 514.90196078431 82.08000000000001 L 483.03921568627 84.36000000000001 L 451.17647058824 88.92000000000002 L 419.3137254902 93.48000000000002 L 387.45098039216 98.04000000000002 L 355.58823529412 102.60000000000001 L 323.72549019608 107.16000000000001 L 291.86274509804 114.00000000000001 L 260 120.84 L 228.13725490196 127.68 L 196.27450980392 136.8 L 164.41176470588 150.0924 L 132.54901960784 161.12760000000003 L 100.6862745098 176.7 L 68.823529411765 189.9924 L 36.960784313725 207.8676 L 5.0980392156863 228" class="highcharts-area"></path><path fill="none" d="M 5.0980392156863 228 L 36.960784313725 202.1904 L 68.823529411765 178.5924 L 100.6862745098 159.60000000000002 L 132.54901960784 138.32760000000002 L 164.41176470588 121.59240000000001 L 196.27450980392 102.60000000000001 L 228.13725490196 93.48000000000002 L 260 86.64000000000001 L 291.86274509804 79.80000000000001 L 323.72549019608 72.96000000000001 L 355.58823529412 68.4 L 387.45098039216 63.84 L 419.3137254902 59.28 L 451.17647058824 54.72000000000003 L 483.03921568627 50.160000000000025 L 514.90196078431 47.880000000000024" class="highcharts-graph" stroke="#666666" stroke-width="1" stroke-linejoin="round" stroke-linecap="round"></path></g><g class="highcharts-markers highcharts-series-1 highcharts-area-series highcharts-color-1 " transform="translate(70,71) scale(1 1)" clip-path="none"><path fill="#434348" d="M 5 224 L 9 228 5 232 1 228 Z" stroke="#666666" stroke-width="1" class="highcharts-point highcharts-color-1"></path><path fill="#434348" d="M 36 198 L 40 202 36 206 32 202 Z" stroke="#666666" stroke-width="1" class="highcharts-point highcharts-color-1"></path><path fill="#434348" d="M 68 175 L 72 179 68 183 64 179 Z" stroke="#666666" stroke-width="1" class="highcharts-point highcharts-color-1"></path><path fill="#434348" d="M 100 156 L 104 160 100 164 96 160 Z" stroke="#666666" stroke-width="1" class="highcharts-point highcharts-color-1"></path><path fill="#434348" d="M 132 134 L 136 138 132 142 128 138 Z" stroke="#666666" stroke-width="1" class="highcharts-point highcharts-color-1"></path><path fill="#434348" d="M 164 118 L 168 122 164 126 160 122 Z" stroke="#666666" stroke-width="1" class="highcharts-point highcharts-color-1"></path><path fill="#434348" d="M 196 99 L 200 103 196 107 192 103 Z" stroke="#666666" stroke-width="1" class="highcharts-point highcharts-color-1"></path><path fill="#434348" d="M 228 89 L 232 93 228 97 224 93 Z" stroke="#666666" stroke-width="1" class="highcharts-point highcharts-color-1"></path><path fill="#434348" d="M 260 83 L 264 87 260 91 256 87 Z" stroke="#666666" stroke-width="1" class="highcharts-point highcharts-color-1"></path><path fill="#434348" d="M 291 76 L 295 80 291 84 287 80 Z" stroke="#666666" stroke-width="1" class="highcharts-point highcharts-color-1"></path><path fill="#434348" d="M 323 69 L 327 73 323 77 319 73 Z" stroke="#666666" stroke-width="1" class="highcharts-point highcharts-color-1"></path><path fill="#434348" d="M 355 64 L 359 68 355 72 351 68 Z" stroke="#666666" stroke-width="1" class="highcharts-point highcharts-color-1"></path><path fill="#434348" d="M 387 60 L 391 64 387 68 383 64 Z" stroke="#666666" stroke-width="1" class="highcharts-point highcharts-color-1"></path><path fill="#434348" d="M 419 55 L 423 59 419 63 415 59 Z" stroke="#666666" stroke-width="1" class="highcharts-point highcharts-color-1"></path><path fill="#434348" d="M 451 51 L 455 55 451 59 447 55 Z" stroke="#666666" stroke-width="1" class="highcharts-point highcharts-color-1"></path><path fill="#434348" d="M 483 46 L 487 50 483 54 479 50 Z" stroke="#666666" stroke-width="1" class="highcharts-point highcharts-color-1"></path><path fill="#434348" d="M 514 44 L 518 48 514 52 510 48 Z" stroke="#666666" stroke-width="1" class="highcharts-point highcharts-color-1"></path></g><g class="highcharts-series highcharts-series-2 highcharts-area-series highcharts-color-2 " transform="translate(70,71) scale(1 1)" clip-path="url(#highcharts-q4d5zho-13)"><path fill="rgb(144,237,125)" fill-opacity="0.75" d="M 5.0980392156863 228 L 36.960784313725 207.8676 L 68.823529411765 189.9924 L 100.6862745098 176.7 L 132.54901960784 161.12760000000003 L 164.41176470588 150.0924 L 196.27450980392 136.8 L 228.13725490196 127.68 L 260 120.84 L 291.86274509804 114.00000000000001 L 323.72549019608 107.16000000000001 L 355.58823529412 102.60000000000001 L 387.45098039216 98.04000000000002 L 419.3137254902 93.48000000000002 L 451.17647058824 88.92000000000002 L 483.03921568627 84.36000000000001 L 514.90196078431 82.08000000000001 L 514.90196078431 93.48000000000002 L 483.03921568627 95.76000000000002 L 451.17647058824 100.32000000000001 L 419.3137254902 104.88000000000001 L 387.45098039216 109.44000000000001 L 355.58823529412 114.00000000000001 L 323.72549019608 118.56 L 291.86274509804 125.4 L 260 132.24 L 228.13725490196 139.08 L 196.27450980392 148.2 L 164.41176470588 159.60000000000002 L 132.54901960784 168.72 L 100.6862745098 182.4 L 68.823529411765 193.8 L 36.960784313725 209.76 L 5.0980392156863 228" class="highcharts-area"></path><path fill="none" d="M 5.0980392156863 228 L 36.960784313725 207.8676 L 68.823529411765 189.9924 L 100.6862745098 176.7 L 132.54901960784 161.12760000000003 L 164.41176470588 150.0924 L 196.27450980392 136.8 L 228.13725490196 127.68 L 260 120.84 L 291.86274509804 114.00000000000001 L 323.72549019608 107.16000000000001 L 355.58823529412 102.60000000000001 L 387.45098039216 98.04000000000002 L 419.3137254902 93.48000000000002 L 451.17647058824 88.92000000000002 L 483.03921568627 84.36000000000001 L 514.90196078431 82.08000000000001" class="highcharts-graph" stroke="#666666" stroke-width="1" stroke-linejoin="round" stroke-linecap="round"></path></g><g class="highcharts-markers highcharts-series-2 highcharts-area-series highcharts-color-2 " transform="translate(70,71) scale(1 1)" clip-path="none"><path fill="#90ed7d" d="M 1 224 L 9 224 9 232 1 232 Z" stroke="#666666" stroke-width="1" class="highcharts-point highcharts-color-2"></path><path fill="#90ed7d" d="M 32 204 L 40 204 40 212 32 212 Z" stroke="#666666" stroke-width="1" class="highcharts-point highcharts-color-2"></path><path fill="#90ed7d" d="M 64 186 L 72 186 72 194 64 194 Z" stroke="#666666" stroke-width="1" class="highcharts-point highcharts-color-2"></path><path fill="#90ed7d" d="M 96 173 L 104 173 104 181 96 181 Z" stroke="#666666" stroke-width="1" class="highcharts-point highcharts-color-2"></path><path fill="#90ed7d" d="M 128 157 L 136 157 136 165 128 165 Z" stroke="#666666" stroke-width="1" class="highcharts-point highcharts-color-2"></path><path fill="#90ed7d" d="M 160 146 L 168 146 168 154 160 154 Z" stroke="#666666" stroke-width="1" class="highcharts-point highcharts-color-2"></path><path fill="#90ed7d" d="M 192 133 L 200 133 200 141 192 141 Z" stroke="#666666" stroke-width="1" class="highcharts-point highcharts-color-2"></path><path fill="#90ed7d" d="M 224 124 L 232 124 232 132 224 132 Z" stroke="#666666" stroke-width="1" class="highcharts-point highcharts-color-2"></path><path fill="#90ed7d" d="M 256 117 L 264 117 264 125 256 125 Z" stroke="#666666" stroke-width="1" class="highcharts-point highcharts-color-2"></path><path fill="#90ed7d" d="M 287 110 L 295 110 295 118 287 118 Z" stroke="#666666" stroke-width="1" class="highcharts-point highcharts-color-2"></path><path fill="#90ed7d" d="M 319 103 L 327 103 327 111 319 111 Z" stroke="#666666" stroke-width="1" class="highcharts-point highcharts-color-2"></path><path fill="#90ed7d" d="M 351 99 L 359 99 359 107 351 107 Z" stroke="#666666" stroke-width="1" class="highcharts-point highcharts-color-2"></path><path fill="#90ed7d" d="M 383 94 L 391 94 391 102 383 102 Z" stroke="#666666" stroke-width="1" class="highcharts-point highcharts-color-2"></path><path fill="#90ed7d" d="M 415 89 L 423 89 423 97 415 97 Z" stroke="#666666" stroke-width="1" class="highcharts-point highcharts-color-2"></path><path fill="#90ed7d" d="M 447 85 L 455 85 455 93 447 93 Z" stroke="#666666" stroke-width="1" class="highcharts-point highcharts-color-2"></path><path fill="#90ed7d" d="M 479 80 L 487 80 487 88 479 88 Z" stroke="#666666" stroke-width="1" class="highcharts-point highcharts-color-2"></path><path fill="#90ed7d" d="M 510 78 L 518 78 518 86 510 86 Z" stroke="#666666" stroke-width="1" class="highcharts-point highcharts-color-2"></path></g><g class="highcharts-series highcharts-series-3 highcharts-area-series highcharts-color-3 " transform="translate(70,71) scale(1 1)" clip-path="url(#highcharts-q4d5zho-13)"><path fill="rgb(247,163,92)" fill-opacity="0.75" d="M 5.0980392156863 228 L 36.960784313725 209.76 L 68.823529411765 193.8 L 100.6862745098 182.4 L 132.54901960784 168.72 L 164.41176470588 159.60000000000002 L 196.27450980392 148.2 L 228.13725490196 139.08 L 260 132.24 L 291.86274509804 125.4 L 323.72549019608 118.56 L 355.58823529412 114.00000000000001 L 387.45098039216 109.44000000000001 L 419.3137254902 104.88000000000001 L 451.17647058824 100.32000000000001 L 483.03921568627 95.76000000000002 L 514.90196078431 93.48000000000002 L 514.90196078431 228 L 483.03921568627 228 L 451.17647058824 228 L 419.3137254902 228 L 387.45098039216 228 L 355.58823529412 228 L 323.72549019608 228 L 291.86274509804 228 L 260 228 L 228.13725490196 228 L 196.27450980392 228 L 164.41176470588 228 L 132.54901960784 228 L 100.6862745098 228 L 68.823529411765 228 L 36.960784313725 228 L 5.0980392156863 228" class="highcharts-area"></path><path fill="none" d="M 5.0980392156863 228 L 36.960784313725 209.76 L 68.823529411765 193.8 L 100.6862745098 182.4 L 132.54901960784 168.72 L 164.41176470588 159.60000000000002 L 196.27450980392 148.2 L 228.13725490196 139.08 L 260 132.24 L 291.86274509804 125.4 L 323.72549019608 118.56 L 355.58823529412 114.00000000000001 L 387.45098039216 109.44000000000001 L 419.3137254902 104.88000000000001 L 451.17647058824 100.32000000000001 L 483.03921568627 95.76000000000002 L 514.90196078431 93.48000000000002" class="highcharts-graph" stroke="#666666" stroke-width="1" stroke-linejoin="round" stroke-linecap="round"></path></g><g class="highcharts-markers highcharts-series-3 highcharts-area-series highcharts-color-3 " transform="translate(70,71) scale(1 1)" clip-path="none"><path fill="#f7a35c" d="M 5 224 L 9 232 1 232 Z" stroke="#666666" stroke-width="1" class="highcharts-point highcharts-color-3"></path><path fill="#f7a35c" d="M 36 206 L 40 214 32 214 Z" stroke="#666666" stroke-width="1" class="highcharts-point highcharts-color-3"></path><path fill="#f7a35c" d="M 68 190 L 72 198 64 198 Z" stroke="#666666" stroke-width="1" class="highcharts-point highcharts-color-3"></path><path fill="#f7a35c" d="M 100 178 L 104 186 96 186 Z" stroke="#666666" stroke-width="1" class="highcharts-point highcharts-color-3"></path><path fill="#f7a35c" d="M 132 165 L 136 173 128 173 Z" stroke="#666666" stroke-width="1" class="highcharts-point highcharts-color-3"></path><path fill="#f7a35c" d="M 164 156 L 168 164 160 164 Z" stroke="#666666" stroke-width="1" class="highcharts-point highcharts-color-3"></path><path fill="#f7a35c" d="M 196 144 L 200 152 192 152 Z" stroke="#666666" stroke-width="1" class="highcharts-point highcharts-color-3"></path><path fill="#f7a35c" d="M 228 135 L 232 143 224 143 Z" stroke="#666666" stroke-width="1" class="highcharts-point highcharts-color-3"></path><path fill="#f7a35c" d="M 260 128 L 264 136 256 136 Z" stroke="#666666" stroke-width="1" class="highcharts-point highcharts-color-3"></path><path fill="#f7a35c" d="M 291 121 L 295 129 287 129 Z" stroke="#666666" stroke-width="1" class="highcharts-point highcharts-color-3"></path><path fill="#f7a35c" d="M 323 115 L 327 123 319 123 Z" stroke="#666666" stroke-width="1" class="highcharts-point highcharts-color-3"></path><path fill="#f7a35c" d="M 355 110 L 359 118 351 118 Z" stroke="#666666" stroke-width="1" class="highcharts-point highcharts-color-3"></path><path fill="#f7a35c" d="M 387 105 L 391 113 383 113 Z" stroke="#666666" stroke-width="1" class="highcharts-point highcharts-color-3"></path><path fill="#f7a35c" d="M 419 101 L 423 109 415 109 Z" stroke="#666666" stroke-width="1" class="highcharts-point highcharts-color-3"></path><path fill="#f7a35c" d="M 451 96 L 455 104 447 104 Z" stroke="#666666" stroke-width="1" class="highcharts-point highcharts-color-3"></path><path fill="#f7a35c" d="M 483 92 L 487 100 479 100 Z" stroke="#666666" stroke-width="1" class="highcharts-point highcharts-color-3"></path><path fill="#f7a35c" d="M 514 89 L 518 97 510 97 Z" stroke="#666666" stroke-width="1" class="highcharts-point highcharts-color-3"></path></g></g><text x="300" text-anchor="middle" class="highcharts-title" style="color:#333333;font-size:18px;fill:#333333;" y="24"><tspan>Token供应量</tspan></text><text x="300" text-anchor="middle" class="highcharts-subtitle" style="color:#666666;fill:#666666;" y="52"><tspan>神童无人机</tspan></text><g class="highcharts-legend" transform="translate(152,356)"><rect fill="none" class="highcharts-legend-box" rx="0" ry="0" x="0" y="0" width="297" height="29" visibility="visible"></rect><g><g><g class="highcharts-legend-item highcharts-area-series highcharts-color-0 highcharts-series-0" transform="translate(8,3)"><text x="21" style="color:#333333;font-size:12px;font-weight:bold;cursor:pointer;fill:#333333;" text-anchor="start" y="15"><tspan>投资人</tspan></text><rect x="2" y="4" width="12" height="12" fill="#7cb5ec" rx="6" ry="6" class="highcharts-point"></rect></g><g class="highcharts-legend-item highcharts-area-series highcharts-color-1 highcharts-series-1" transform="translate(87,3)"><text x="21" y="15" style="color:#333333;font-size:12px;font-weight:bold;cursor:pointer;fill:#333333;" text-anchor="start"><tspan>创业团队</tspan></text><rect x="2" y="4" width="12" height="12" fill="#434348" rx="6" ry="6" class="highcharts-point"></rect></g><g class="highcharts-legend-item highcharts-area-series highcharts-color-2 highcharts-series-2" transform="translate(178,3)"><text x="21" y="15" style="color:#333333;font-size:12px;font-weight:bold;cursor:pointer;fill:#333333;" text-anchor="start"><tspan>推广</tspan></text><rect x="2" y="4" width="12" height="12" fill="#90ed7d" rx="6" ry="6" class="highcharts-point"></rect></g><g class="highcharts-legend-item highcharts-area-series highcharts-color-3 highcharts-series-3" transform="translate(244,3)"><text x="21" y="15" style="color:#333333;font-size:12px;font-weight:bold;cursor:pointer;fill:#333333;" text-anchor="start"><tspan>用户</tspan></text><rect x="2" y="4" width="12" height="12" fill="#f7a35c" rx="6" ry="6" class="highcharts-point"></rect></g></g></g></g><g class="highcharts-axis-labels highcharts-xaxis-labels "><text x="75.098039215686" style="color:#666666;cursor:default;font-size:11px;fill:#666666;" text-anchor="middle" transform="translate(0,0)" y="318" opacity="1">0</text><text x="138.82352941176" style="color:#666666;cursor:default;font-size:11px;fill:#666666;" text-anchor="middle" transform="translate(0,0)" y="318" opacity="1">2</text><text x="202.54901960784" style="color:#666666;cursor:default;font-size:11px;fill:#666666;" text-anchor="middle" transform="translate(0,0)" y="318" opacity="1">4</text><text x="266.27450980392" style="color:#666666;cursor:default;font-size:11px;fill:#666666;" text-anchor="middle" transform="translate(0,0)" y="318" opacity="1">6</text><text x="330" style="color:#666666;cursor:default;font-size:11px;fill:#666666;" text-anchor="middle" transform="translate(0,0)" y="318" opacity="1">8</text><text x="393.72549019608" style="color:#666666;cursor:default;font-size:11px;fill:#666666;" text-anchor="middle" transform="translate(0,0)" y="318" opacity="1">10</text><text x="457.45098039216" style="color:#666666;cursor:default;font-size:11px;fill:#666666;" text-anchor="middle" transform="translate(0,0)" y="318" opacity="1">12</text><text x="521.17647058824" style="color:#666666;cursor:default;font-size:11px;fill:#666666;" text-anchor="middle" transform="translate(0,0)" y="318" opacity="1">14</text><text x="583.0234375" style="color:#666666;cursor:default;font-size:11px;fill:#666666;" text-anchor="middle" transform="translate(0,0)" y="318" opacity="1">16</text></g><g class="highcharts-axis-labels highcharts-yaxis-labels "><text x="55" style="color:#666666;cursor:default;font-size:11px;fill:#666666;" text-anchor="end" transform="translate(0,0)" y="303" opacity="1">0</text><text x="55" style="color:#666666;cursor:default;font-size:11px;fill:#666666;" text-anchor="end" transform="translate(0,0)" y="246" opacity="1">0.5</text><text x="55" style="color:#666666;cursor:default;font-size:11px;fill:#666666;" text-anchor="end" transform="translate(0,0)" y="189" opacity="1">1</text><text x="55" style="color:#666666;cursor:default;font-size:11px;fill:#666666;" text-anchor="end" transform="translate(0,0)" y="132" opacity="1">1.5</text><text x="55" style="color:#666666;cursor:default;font-size:11px;fill:#666666;" text-anchor="end" transform="translate(0,0)" y="75" opacity="1">2</text></g><text x="590" class="highcharts-credits" text-anchor="end" style="cursor:pointer;color:#999999;font-size:9px;fill:#999999;" y="395">mingda.space</text></svg>