<?xml version="1.0" standalone="no"?><!DOCTYPE svg PUBLIC "-//W3C//DTD SVG 1.1//EN" "http://www.w3.org/Graphics/SVG/1.1/DTD/svg11.dtd"><svg xmlns:xlink="http://www.w3.org/1999/xlink" version="1.1" class="highcharts-root" style="font-family:&quot;Lucida Grande&quot;, &quot;Lucida Sans Unicode&quot;, Arial, Helvetica, sans-serif;font-size:12px;" xmlns="http://www.w3.org/2000/svg" width="600" height="400" viewBox="0 0 600 400"><desc>Created with Highcharts 6.1.0</desc><defs><clipPath id="highcharts-zye78hu-14"><rect x="0" y="0" width="419" height="269" fill="none"></rect></clipPath></defs><rect fill="#ffffff" class="highcharts-background" x="0" y="0" width="600" height="400" rx="0" ry="0"></rect><rect fill="none" class="highcharts-plot-background" x="60" y="71" width="419" height="269"></rect><g class="highcharts-grid highcharts-xaxis-grid "><path fill="none" class="highcharts-grid-line" d="M 63.5 71 L 63.5 340" opacity="1"></path><path fill="none" class="highcharts-grid-line" d="M 132.5 71 L 132.5 340" opacity="1"></path><path fill="none" class="highcharts-grid-line" d="M 200.5 71 L 200.5 340" opacity="1"></path><path fill="none" class="highcharts-grid-line" d="M 269.5 71 L 269.5 340" opacity="1"></path><path fill="none" class="highcharts-grid-line" d="M 337.5 71 L 337.5 340" opacity="1"></path><path fill="none" class="highcharts-grid-line" d="M 405.5 71 L 405.5 340" opacity="1"></path><path fill="none" class="highcharts-grid-line" d="M 474.5 71 L 474.5 340" opacity="1"></path></g><g class="highcharts-grid highcharts-yaxis-grid "><path fill="none" stroke="#e6e6e6" stroke-width="1" class="highcharts-grid-line" d="M 60 340.5 L 479 340.5" opacity="1"></path><path fill="none" stroke="#e6e6e6" stroke-width="1" class="highcharts-grid-line" d="M 60 273.5 L 479 273.5" opacity="1"></path><path fill="none" stroke="#e6e6e6" stroke-width="1" class="highcharts-grid-line" d="M 60 206.5 L 479 206.5" opacity="1"></path><path fill="none" stroke="#e6e6e6" stroke-width="1" class="highcharts-grid-line" d="M 60 138.5 L 479 138.5" opacity="1"></path><path fill="none" stroke="#e6e6e6" stroke-width="1" class="highcharts-grid-line" d="M 60 70.5 L 479 70.5" opacity="1"></path></g><rect fill="none" class="highcharts-plot-border" x="60" y="71" width="419" height="269"></rect><g class="highcharts-axis highcharts-xaxis "><path fill="none" class="highcharts-tick" stroke="#ccd6eb" stroke-width="1" d="M 63.5 340 L 63.5 350" opacity="1"></path><path fill="none" class="highcharts-tick" stroke="#ccd6eb" stroke-width="1" d="M 132.5 340 L 132.5 350" opacity="1"></path><path fill="none" class="highcharts-tick" stroke="#ccd6eb" stroke-width="1" d="M 200.5 340 L 200.5 350" opacity="1"></path><path fill="none" class="highcharts-tick" stroke="#ccd6eb" stroke-width="1" d="M 269.5 340 L 269.5 350" opacity="1"></path><path fill="none" class="highcharts-tick" stroke="#ccd6eb" stroke-width="1" d="M 337.5 340 L 337.5 350" opacity="1"></path><path fill="none" class="highcharts-tick" stroke="#ccd6eb" stroke-width="1" d="M 405.5 340 L 405.5 350" opacity="1"></path><path fill="none" class="highcharts-tick" stroke="#ccd6eb" stroke-width="1" d="M 474.5 340 L 474.5 350" opacity="1"></path><text x="269.5" text-anchor="middle" transform="translate(0,0)" class="highcharts-axis-title" style="color:#666666;fill:#666666;" y="379"><tspan>上升量/美金</tspan></text><path fill="none" class="highcharts-axis-line" stroke="#ccd6eb" stroke-width="1" d="M 60 340.5 L 479 340.5"></path></g><g class="highcharts-axis highcharts-yaxis "><text x="26" text-anchor="middle" transform="translate(0,0) rotate(270 26 205.5)" class="highcharts-axis-title" style="color:#666666;fill:#666666;" y="205.5"><tspan>价格</tspan></text><path fill="none" class="highcharts-axis-line" d="M 60 71 L 60 340"></path></g><g class="highcharts-series-group"><g class="highcharts-series highcharts-series-0 highcharts-line-series highcharts-color-0 " transform="translate(60,71) scale(1 1)" clip-path="url(#highcharts-zye78hu-14)"><path fill="none" d="M 72.571895424837 226.96875 L 141.03594771242 184.9375 L 209.5 142.90625 L 277.96405228758 100.875 L 346.42810457516 58.84375 L 414.89215686275 16.8125" class="highcharts-graph" stroke="#7cb5ec" stroke-width="2" stroke-linejoin="round" stroke-linecap="round"></path></g><g class="highcharts-markers highcharts-series-0 highcharts-line-series highcharts-color-0 " transform="translate(60,71) scale(1 1)" clip-path="none"><path fill="#7cb5ec" d="M 76 227 A 4 4 0 1 1 75.99999800000016 226.99600000066667 Z" class="highcharts-point highcharts-color-0"></path><path fill="#7cb5ec" d="M 145 185 A 4 4 0 1 1 144.99999800000018 184.99600000066667 Z" class="highcharts-point highcharts-color-0"></path><path fill="#7cb5ec" d="M 213 143 A 4 4 0 1 1 212.99999800000018 142.99600000066667 Z" class="highcharts-point highcharts-color-0"></path><path fill="#7cb5ec" d="M 281 101 A 4 4 0 1 1 280.9999980000002 100.99600000066667 Z" class="highcharts-point highcharts-color-0"></path><path fill="#7cb5ec" d="M 350 59 A 4 4 0 1 1 349.9999980000002 58.99600000066666 Z" class="highcharts-point highcharts-color-0"></path><path fill="#7cb5ec" d="M 418 17 A 4 4 0 1 1 417.9999980000002 16.996000000666665 Z" class="highcharts-point highcharts-color-0"></path></g><g class="highcharts-series highcharts-series-1 highcharts-line-series highcharts-color-1 " transform="translate(60,71) scale(1 1)" clip-path="url(#highcharts-zye78hu-14)"><path fill="none" d="M 4.1078431372549 269 L 72.571895424837 243.78125" class="highcharts-graph" stroke="#434348" stroke-width="2" stroke-linejoin="round" stroke-linecap="round"></path></g><g class="highcharts-markers highcharts-series-1 highcharts-line-series highcharts-color-1 " transform="translate(60,71) scale(1 1)" clip-path="none"><path fill="#434348" d="M 4 265 L 8 269 4 273 0 269 Z" class="highcharts-point highcharts-color-1"></path><path fill="#434348" d="M 72 240 L 76 244 72 248 68 244 Z" class="highcharts-point highcharts-color-1"></path></g><g class="highcharts-series highcharts-series-2 highcharts-line-series highcharts-color-2 " transform="translate(60,71) scale(1 1)" clip-path="url(#highcharts-zye78hu-14)"><path fill="none" d="M 4.1078431372549 269 L 61.617647058824 246.303125" class="highcharts-graph" stroke="#90ed7d" stroke-width="2" stroke-linejoin="round" stroke-linecap="round"></path></g><g class="highcharts-markers highcharts-series-2 highcharts-line-series highcharts-color-2 " transform="translate(60,71) scale(1 1)" clip-path="none"><path fill="#90ed7d" d="M 0 265 L 8 265 8 273 0 273 Z" class="highcharts-point highcharts-color-2"></path><path fill="#90ed7d" d="M 57 242 L 65 242 65 250 57 250 Z" class="highcharts-point highcharts-color-2"></path></g><g class="highcharts-series highcharts-series-3 highcharts-line-series highcharts-color-3 " transform="translate(60,71) scale(1 1)" clip-path="url(#highcharts-zye78hu-14)"><path fill="none" d="M 4.1078431372549 269 L 45.186274509804 251.346875" class="highcharts-graph" stroke="#f7a35c" stroke-width="2" stroke-linejoin="round" stroke-linecap="round"></path></g><g class="highcharts-markers highcharts-series-3 highcharts-line-series highcharts-color-3 " transform="translate(60,71) scale(1 1)" clip-path="none"><path fill="#f7a35c" d="M 4 265 L 8 273 0 273 Z" class="highcharts-point highcharts-color-3"></path><path fill="#f7a35c" d="M 45 247 L 49 255 41 255 Z" class="highcharts-point highcharts-color-3"></path></g></g><g class="highcharts-label" opacity="1" transform="translate(396,75)"><path fill="none" class="highcharts-label-box" d="M 0 0" stroke="#7cb5ec" stroke-width="1"></path><text x="0" style="font-weight:bold;color:#7cb5ec;fill:#7cb5ec;" y="12">公开发行人</text></g><g class="highcharts-label" opacity="1" transform="translate(136,318)"><path fill="none" class="highcharts-label-box" d="M 0 0" stroke="#434348" stroke-width="1"></path><text x="0" style="font-weight:bold;color:#434348;fill:#434348;" y="12">初级合伙人</text></g><g class="highcharts-label" opacity="1" transform="translate(66,263)"><path fill="none" class="highcharts-label-box" d="M 55.5 54.30312500000002 L 25.696874999999977 18.5" stroke="#90ed7d" stroke-width="1"></path><text x="0" style="font-weight:bold;color:#90ed7d;fill:#90ed7d;" y="12">中级合伙人</text></g><g class="highcharts-label" opacity="1" transform="translate(66,295)"><path fill="none" class="highcharts-label-box" d="M 38.5 27.34687500000001 L 52.65312499999999 18.5" stroke="#f7a35c" stroke-width="1"></path><text x="0" style="font-weight:bold;color:#f7a35c;fill:#f7a35c;" y="12">高级合伙人</text></g><text x="300" text-anchor="middle" class="highcharts-title" style="color:#333333;font-size:18px;fill:#333333;" y="24"><tspan>Token盈利模式</tspan></text><text x="300" text-anchor="middle" class="highcharts-subtitle" style="color:#666666;fill:#666666;" y="52"><tspan>明大科技 mingda.space　版权所有</tspan></text><g class="highcharts-legend" transform="translate(491,156)"><rect fill="none" class="highcharts-legend-box" rx="0" ry="0" x="0" y="0" width="99" height="83" visibility="visible"></rect><g><g><g class="highcharts-legend-item highcharts-line-series highcharts-color-0 highcharts-series-0" transform="translate(8,3)"><path fill="none" d="M 0 11 L 16 11" class="highcharts-graph" stroke="#7cb5ec" stroke-width="2"></path><path fill="#7cb5ec" d="M 12 11 A 4 4 0 1 1 11.999998000000167 10.996000000666664 Z" class="highcharts-point"></path><text x="21" style="color:#333333;font-size:12px;font-weight:bold;cursor:pointer;fill:#333333;" text-anchor="start" y="15"><tspan>公开发行人</tspan></text></g><g class="highcharts-legend-item highcharts-line-series highcharts-color-1 highcharts-series-1" transform="translate(8,21)"><path fill="none" d="M 0 11 L 16 11" class="highcharts-graph" stroke="#434348" stroke-width="2"></path><path fill="#434348" d="M 8 7 L 12 11 8 15 4 11 Z" class="highcharts-point"></path><text x="21" y="15" style="color:#333333;font-size:12px;font-weight:bold;cursor:pointer;fill:#333333;" text-anchor="start"><tspan>初级合伙人</tspan></text></g><g class="highcharts-legend-item highcharts-line-series highcharts-color-2 highcharts-series-2" transform="translate(8,39)"><path fill="none" d="M 0 11 L 16 11" class="highcharts-graph" stroke="#90ed7d" stroke-width="2"></path><path fill="#90ed7d" d="M 4 7 L 12 7 12 15 4 15 Z" class="highcharts-point"></path><text x="21" y="15" style="color:#333333;font-size:12px;font-weight:bold;cursor:pointer;fill:#333333;" text-anchor="start"><tspan>中级合伙人</tspan></text></g><g class="highcharts-legend-item highcharts-line-series highcharts-color-3 highcharts-series-3" transform="translate(8,57)"><path fill="none" d="M 0 11 L 16 11" class="highcharts-graph" stroke="#f7a35c" stroke-width="2"></path><path fill="#f7a35c" d="M 8 7 L 12 15 4 15 Z" class="highcharts-point"></path><text x="21" y="15" style="color:#333333;font-size:12px;font-weight:bold;cursor:pointer;fill:#333333;" text-anchor="start"><tspan>高级合伙人</tspan></text></g></g></g></g><g class="highcharts-axis-labels highcharts-xaxis-labels "><text x="64.107843137255" style="color:#666666;cursor:default;font-size:11px;fill:#666666;" text-anchor="middle" transform="translate(0,0)" y="359" opacity="1">0m</text><text x="132.57189542484" style="color:#666666;cursor:default;font-size:11px;fill:#666666;" text-anchor="middle" transform="translate(0,0)" y="359" opacity="1">50m</text><text x="201.03594771242" style="color:#666666;cursor:default;font-size:11px;fill:#666666;" text-anchor="middle" transform="translate(0,0)" y="359" opacity="1">100m</text><text x="269.5" style="color:#666666;cursor:default;font-size:11px;fill:#666666;" text-anchor="middle" transform="translate(0,0)" y="359" opacity="1">150m</text><text x="337.96405228758" style="color:#666666;cursor:default;font-size:11px;fill:#666666;" text-anchor="middle" transform="translate(0,0)" y="359" opacity="1">200m</text><text x="406.42810457516" style="color:#666666;cursor:default;font-size:11px;fill:#666666;" text-anchor="middle" transform="translate(0,0)" y="359" opacity="1">250m</text><text x="474.89215686275" style="color:#666666;cursor:default;font-size:11px;fill:#666666;" text-anchor="middle" transform="translate(0,0)" y="359" opacity="1">300m</text></g><g class="highcharts-axis-labels highcharts-yaxis-labels "><text x="45" style="color:#666666;cursor:default;font-size:11px;fill:#666666;" text-anchor="end" transform="translate(0,0)" y="344" opacity="1">0</text><text x="45" style="color:#666666;cursor:default;font-size:11px;fill:#666666;" text-anchor="end" transform="translate(0,0)" y="277" opacity="1">2</text><text x="45" style="color:#666666;cursor:default;font-size:11px;fill:#666666;" text-anchor="end" transform="translate(0,0)" y="210" opacity="1">4</text><text x="45" style="color:#666666;cursor:default;font-size:11px;fill:#666666;" text-anchor="end" transform="translate(0,0)" y="142" opacity="1">6</text><text x="45" style="color:#666666;cursor:default;font-size:11px;fill:#666666;" text-anchor="end" transform="translate(0,0)" y="75" opacity="1">8</text></g><text x="590" class="highcharts-credits" text-anchor="end" style="cursor:pointer;color:#999999;font-size:9px;fill:#999999;" y="395">mingda.space</text></svg>