<?xml version="1.0" standalone="no"?><!DOCTYPE svg PUBLIC "-//W3C//DTD SVG 1.1//EN" "http://www.w3.org/Graphics/SVG/1.1/DTD/svg11.dtd"><svg xmlns:xlink="http://www.w3.org/1999/xlink" version="1.1" class="highcharts-root" style="font-family:&quot;Lucida Grande&quot;, &quot;Lucida Sans Unicode&quot;, Arial, Helvetica, sans-serif;font-size:12px;" xmlns="http://www.w3.org/2000/svg" width="600" height="400" viewBox="0 0 600 400"><desc>Created with Highcharts 6.1.0</desc><defs><clipPath id="highcharts-zye78hu-26"><rect x="0" y="0" width="409" height="269" fill="none"></rect></clipPath></defs><rect fill="#ffffff" class="highcharts-background" x="0" y="0" width="600" height="400" rx="0" ry="0"></rect><rect fill="none" class="highcharts-plot-background" x="70" y="71" width="409" height="269"></rect><g class="highcharts-grid highcharts-xaxis-grid "><path fill="none" class="highcharts-grid-line" d="M 73.5 71 L 73.5 340" opacity="1"></path><path fill="none" class="highcharts-grid-line" d="M 153.5 71 L 153.5 340" opacity="1"></path><path fill="none" class="highcharts-grid-line" d="M 233.5 71 L 233.5 340" opacity="1"></path><path fill="none" class="highcharts-grid-line" d="M 314.5 71 L 314.5 340" opacity="1"></path><path fill="none" class="highcharts-grid-line" d="M 394.5 71 L 394.5 340" opacity="1"></path><path fill="none" class="highcharts-grid-line" d="M 474.5 71 L 474.5 340" opacity="1"></path></g><g class="highcharts-grid highcharts-yaxis-grid "><path fill="none" stroke="#e6e6e6" stroke-width="1" class="highcharts-grid-line" d="M 70 340.5 L 479 340.5" opacity="1"></path><path fill="none" stroke="#e6e6e6" stroke-width="1" class="highcharts-grid-line" d="M 70 273.5 L 479 273.5" opacity="1"></path><path fill="none" stroke="#e6e6e6" stroke-width="1" class="highcharts-grid-line" d="M 70 206.5 L 479 206.5" opacity="1"></path><path fill="none" stroke="#e6e6e6" stroke-width="1" class="highcharts-grid-line" d="M 70 138.5 L 479 138.5" opacity="1"></path><path fill="none" stroke="#e6e6e6" stroke-width="1" class="highcharts-grid-line" d="M 70 70.5 L 479 70.5" opacity="1"></path></g><rect fill="none" class="highcharts-plot-border" x="70" y="71" width="409" height="269"></rect><g class="highcharts-axis highcharts-xaxis "><path fill="none" class="highcharts-tick" stroke="#ccd6eb" stroke-width="1" d="M 73.5 340 L 73.5 350" opacity="1"></path><path fill="none" class="highcharts-tick" stroke="#ccd6eb" stroke-width="1" d="M 153.5 340 L 153.5 350" opacity="1"></path><path fill="none" class="highcharts-tick" stroke="#ccd6eb" stroke-width="1" d="M 233.5 340 L 233.5 350" opacity="1"></path><path fill="none" class="highcharts-tick" stroke="#ccd6eb" stroke-width="1" d="M 314.5 340 L 314.5 350" opacity="1"></path><path fill="none" class="highcharts-tick" stroke="#ccd6eb" stroke-width="1" d="M 394.5 340 L 394.5 350" opacity="1"></path><path fill="none" class="highcharts-tick" stroke="#ccd6eb" stroke-width="1" d="M 474.5 340 L 474.5 350" opacity="1"></path><text x="274.5" text-anchor="middle" transform="translate(0,0)" class="highcharts-axis-title" style="color:#666666;fill:#666666;" y="379"><tspan>上升量/美金</tspan></text><path fill="none" class="highcharts-axis-line" stroke="#ccd6eb" stroke-width="1" d="M 70 340.5 L 479 340.5"></path></g><g class="highcharts-axis highcharts-yaxis "><text x="25.609375" text-anchor="middle" transform="translate(0,0) rotate(270 25.609375 205.5)" class="highcharts-axis-title" style="color:#666666;fill:#666666;" y="205.5"><tspan>价格</tspan></text><path fill="none" class="highcharts-axis-line" d="M 70 71 L 70 340"></path></g><g class="highcharts-series-group"><g class="highcharts-series highcharts-series-0 highcharts-line-series highcharts-color-0 " visibility="hidden" transform="translate(70,71) scale(1 1)" clip-path="url(#highcharts-zye78hu-26)"><path fill="none" d="M 404.99019607843 -151.3125 L 805.97058823529 -571.625 L 1206.9509803922 -991.9375 L 1607.931372549 -1412.25 L 2008.9117647059 -1832.5625 L 2409.8921568627 -2252.875" class="highcharts-graph" stroke="#7cb5ec" stroke-width="2" stroke-linejoin="round" stroke-linecap="round"></path></g><g class="highcharts-markers highcharts-series-0 highcharts-line-series highcharts-color-0 " visibility="hidden" transform="translate(70,71) scale(1 1)" clip-path="none"></g><g class="highcharts-series highcharts-series-1 highcharts-line-series highcharts-color-1 " transform="translate(70,71) scale(1 1)" clip-path="url(#highcharts-zye78hu-26)"><path fill="none" d="M 4.0098039215686 269 L 404.99019607843 16.8125" class="highcharts-graph" stroke="#434348" stroke-width="2" stroke-linejoin="round" stroke-linecap="round"></path></g><g class="highcharts-markers highcharts-series-1 highcharts-line-series highcharts-color-1 " transform="translate(70,71) scale(1 1)" clip-path="none"><path fill="#434348" d="M 4 265 L 8 269 4 273 0 269 Z" class="highcharts-point highcharts-color-1"></path><path fill="#434348" d="M 404 13 L 408 17 404 21 400 17 Z" class="highcharts-point highcharts-color-1"></path></g><g class="highcharts-series highcharts-series-2 highcharts-line-series highcharts-color-2 " transform="translate(70,71) scale(1 1)" clip-path="url(#highcharts-zye78hu-26)"><path fill="none" d="M 4.0098039215686 269 L 340.83333333333 42.03124999999997" class="highcharts-graph" stroke="#90ed7d" stroke-width="2" stroke-linejoin="round" stroke-linecap="round"></path></g><g class="highcharts-markers highcharts-series-2 highcharts-line-series highcharts-color-2 " transform="translate(70,71) scale(1 1)" clip-path="none"><path fill="#90ed7d" d="M 0 265 L 8 265 8 273 0 273 Z" class="highcharts-point highcharts-color-2"></path><path fill="#90ed7d" d="M 336 38 L 344 38 344 46 336 46 Z" class="highcharts-point highcharts-color-2"></path></g><g class="highcharts-series highcharts-series-3 highcharts-line-series highcharts-color-3 " transform="translate(70,71) scale(1 1)" clip-path="url(#highcharts-zye78hu-26)"><path fill="none" d="M 4.0098039215686 269 L 244.59803921569 92.46875" class="highcharts-graph" stroke="#f7a35c" stroke-width="2" stroke-linejoin="round" stroke-linecap="round"></path></g><g class="highcharts-markers highcharts-series-3 highcharts-line-series highcharts-color-3 " transform="translate(70,71) scale(1 1)" clip-path="none"><path fill="#f7a35c" d="M 4 265 L 8 273 0 273 Z" class="highcharts-point highcharts-color-3"></path><path fill="#f7a35c" d="M 244 88 L 248 96 240 96 Z" class="highcharts-point highcharts-color-3"></path></g></g><g class="highcharts-label" opacity="1" transform="translate(416,130)"><path fill="none" class="highcharts-label-box" d="M 0 0" stroke="#434348" stroke-width="1"></path><text x="0" style="font-weight:bold;color:#434348;fill:#434348;" y="12">初级合伙人</text></g><g class="highcharts-label" opacity="1" transform="translate(347,92)"><path fill="none" class="highcharts-label-box" d="M 0 0" stroke="#90ed7d" stroke-width="1"></path><text x="0" style="font-weight:bold;color:#90ed7d;fill:#90ed7d;" y="12">中级合伙人</text></g><g class="highcharts-label" opacity="1" transform="translate(251,142)"><path fill="none" class="highcharts-label-box" d="M 0 0" stroke="#f7a35c" stroke-width="1"></path><text x="0" style="font-weight:bold;color:#f7a35c;fill:#f7a35c;" y="12">高级合伙人</text></g><text x="300" text-anchor="middle" class="highcharts-title" style="color:#333333;font-size:18px;fill:#333333;" y="24"><tspan>Token盈利模式</tspan></text><text x="300" text-anchor="middle" class="highcharts-subtitle" style="color:#666666;fill:#666666;" y="52"><tspan>明大科技 mingda.space　版权所有</tspan></text><g class="highcharts-legend" transform="translate(491,156)"><rect fill="none" class="highcharts-legend-box" rx="0" ry="0" x="0" y="0" width="99" height="83" visibility="visible"></rect><g><g><g class="highcharts-legend-item highcharts-line-series highcharts-color-0 highcharts-series-0 highcharts-legend-item-hidden" transform="translate(8,3)"><path fill="none" d="M 0 11 L 16 11" class="highcharts-graph" stroke="#cccccc" stroke-width="2"></path><path fill="#cccccc" d="M 12 11 A 4 4 0 1 1 11.999998000000167 10.996000000666664 Z" class="highcharts-point"></path><text x="21" style="color:#cccccc;font-size:12px;font-weight:bold;cursor:pointer;fill:#cccccc;" text-anchor="start" y="15"><tspan>公开发行人</tspan></text></g><g class="highcharts-legend-item highcharts-line-series highcharts-color-1 highcharts-series-1" transform="translate(8,21)"><path fill="none" d="M 0 11 L 16 11" class="highcharts-graph" stroke="#434348" stroke-width="2"></path><path fill="#434348" d="M 8 7 L 12 11 8 15 4 11 Z" class="highcharts-point"></path><text x="21" y="15" style="color:#333333;font-size:12px;font-weight:bold;cursor:pointer;fill:#333333;" text-anchor="start"><tspan>初级合伙人</tspan></text></g><g class="highcharts-legend-item highcharts-line-series highcharts-color-2 highcharts-series-2" transform="translate(8,39)"><path fill="none" d="M 0 11 L 16 11" class="highcharts-graph" stroke="#90ed7d" stroke-width="2"></path><path fill="#90ed7d" d="M 4 7 L 12 7 12 15 4 15 Z" class="highcharts-point"></path><text x="21" y="15" style="color:#333333;font-size:12px;font-weight:bold;cursor:pointer;fill:#333333;" text-anchor="start"><tspan>中级合伙人</tspan></text></g><g class="highcharts-legend-item highcharts-line-series highcharts-color-3 highcharts-series-3" transform="translate(8,57)"><path fill="none" d="M 0 11 L 16 11" class="highcharts-graph" stroke="#f7a35c" stroke-width="2"></path><path fill="#f7a35c" d="M 8 7 L 12 15 4 15 Z" class="highcharts-point"></path><text x="21" y="15" style="color:#333333;font-size:12px;font-weight:bold;cursor:pointer;fill:#333333;" text-anchor="start"><tspan>高级合伙人</tspan></text></g></g></g></g><g class="highcharts-axis-labels highcharts-xaxis-labels "><text x="74.009803921569" style="color:#666666;cursor:default;font-size:11px;fill:#666666;" text-anchor="middle" transform="translate(0,0)" y="359" opacity="1">0m</text><text x="154.20588235294" style="color:#666666;cursor:default;font-size:11px;fill:#666666;" text-anchor="middle" transform="translate(0,0)" y="359" opacity="1">10m</text><text x="234.40196078431" style="color:#666666;cursor:default;font-size:11px;fill:#666666;" text-anchor="middle" transform="translate(0,0)" y="359" opacity="1">20m</text><text x="314.59803921569" style="color:#666666;cursor:default;font-size:11px;fill:#666666;" text-anchor="middle" transform="translate(0,0)" y="359" opacity="1">30m</text><text x="394.79411764706" style="color:#666666;cursor:default;font-size:11px;fill:#666666;" text-anchor="middle" transform="translate(0,0)" y="359" opacity="1">40m</text><text x="474.99019607843" style="color:#666666;cursor:default;font-size:11px;fill:#666666;" text-anchor="middle" transform="translate(0,0)" y="359" opacity="1">50m</text></g><g class="highcharts-axis-labels highcharts-yaxis-labels "><text x="55" style="color:#666666;cursor:default;font-size:11px;fill:#666666;" text-anchor="end" transform="translate(0,0)" y="344" opacity="1">0</text><text x="55" style="color:#666666;cursor:default;font-size:11px;fill:#666666;" text-anchor="end" transform="translate(0,0)" y="277" opacity="1">0.2</text><text x="55" style="color:#666666;cursor:default;font-size:11px;fill:#666666;" text-anchor="end" transform="translate(0,0)" y="210" opacity="1">0.4</text><text x="55" style="color:#666666;cursor:default;font-size:11px;fill:#666666;" text-anchor="end" transform="translate(0,0)" y="142" opacity="1">0.6</text><text x="55" style="color:#666666;cursor:default;font-size:11px;fill:#666666;" text-anchor="end" transform="translate(0,0)" y="75" opacity="1">0.8</text></g><text x="590" class="highcharts-credits" text-anchor="end" style="cursor:pointer;color:#999999;font-size:9px;fill:#999999;" y="395">mingda.space</text></svg>